# xmcd
#
# Track frame offsets: 
#        150
#        23630
#        48640
#        94072
#        110272
#        162645
#
# Disc length: 2413 seconds
#
# Revision: 0
# Processed by: cddbd v1.5.2PL0 Copyright (c) Steve Scherf et al.
# Submitted via: ExactAudioCopy v0.95b4
#
DISCID=46096b06
DTITLE=Barrelhouse - Straight From The Shoulder Live
DYEAR=1984
DGENRE=Blues
TTITLE0=Every Night Is Saterday Night
TTITLE1=Beware
TTITLE2=Too Many People
TTITLE3=I Can't Believe
TTITLE4=I'm In The Mood
TTITLE5=City Lights
EXTD=
EXTT0=
EXTT1=
EXTT2=
EXTT3=
EXTT4=
EXTT5=
PLAYORDER=
